<svg width="542" height="380" viewBox="0 0 542 380" fill="none" xmlns="http://www.w3.org/2000/svg">
<path d="M443.139 0.804199H331.498C327.36 0.804199 324.006 4.1546 324.006 8.28753V90.6042C324.006 94.7371 327.36 98.0875 331.498 98.0875H443.139C447.277 98.0875 450.631 94.7371 450.631 90.6042V8.28753C450.631 4.1546 447.277 0.804199 443.139 0.804199Z" fill="#F2F6FB"/>
<path d="M343.635 78.0872L362.537 49.3627C364.331 46.6354 368.264 46.3544 370.421 48.7985L378.047 57.4173C381.527 61.3432 387.836 60.7412 390.497 56.2357L408.684 25.392C410.504 22.3022 414.852 22.0895 416.996 24.9751L436.287 51.2517C436.737 51.8638 437.597 51.9952 438.208 51.5453C438.819 51.0953 438.95 50.2344 438.501 49.6223L419.205 23.3394C415.888 18.8745 409.139 19.2047 406.318 23.9938L388.131 54.8363C386.42 57.7344 382.346 58.1231 380.103 55.5921L372.478 46.9755C369.124 43.1743 363.032 43.6097 360.243 47.8492L341.341 76.5735C340.923 77.2078 341.098 78.0609 341.732 78.4789C342.365 78.8969 343.217 78.7215 343.635 78.0872Z" fill="#E1E5F0"/>
<path d="M351.354 68.077C353.63 68.077 355.475 66.2296 355.475 63.9506C355.475 61.6717 353.63 59.8242 351.354 59.8242C349.078 59.8242 347.233 61.6717 347.233 63.9506C347.233 66.2296 349.078 68.077 351.354 68.077Z" fill="#3ABF7C"/>
<path d="M397.309 45.8197C399.585 45.8197 401.43 43.9723 401.43 41.6933C401.43 39.4144 399.585 37.5669 397.309 37.5669C395.033 37.5669 393.188 39.4144 393.188 41.6933C393.188 43.9723 395.033 45.8197 397.309 45.8197Z" fill="#FFCB3D"/>
<path d="M207.121 0.804199H84.6164C83.375 0.804199 82.3687 1.80932 82.3687 3.0492V95.8425C82.3687 97.0824 83.375 98.0875 84.6164 98.0875H207.121C208.362 98.0875 209.369 97.0824 209.369 95.8425V3.0492C209.369 1.80932 208.362 0.804199 207.121 0.804199Z" fill="#F2F6FB"/>
<path d="M183.611 53.0723H188.034C189.704 53.0723 190.309 53.2459 190.92 53.572C191.53 53.8981 192.009 54.3767 192.336 54.9864C192.662 55.5962 192.836 56.201 192.836 57.8689V98.0877H178.809V57.8689C178.809 56.201 178.982 55.5962 179.309 54.9864C179.635 54.3767 180.115 53.8981 180.725 53.572C181.336 53.2459 181.941 53.0723 183.611 53.0723Z" fill="#D8DEED"/>
<path d="M167.58 63.8262H172.253C173.923 63.8262 174.528 63.9998 175.139 64.3259C175.749 64.652 176.229 65.1306 176.555 65.7403C176.882 66.3501 177.055 66.9549 177.055 68.6228V98.0879H162.777V68.6228C162.777 66.9549 162.951 66.3501 163.278 65.7403C163.604 65.1306 164.083 64.652 164.694 64.3259C165.304 63.9998 165.91 63.8262 167.58 63.8262Z" fill="#D8DEED"/>
<path d="M151.799 30.3145H156.221C157.891 30.3145 158.497 30.4881 159.107 30.8142C159.718 31.1403 160.197 31.6189 160.523 32.2286C160.85 32.8384 161.024 33.4432 161.024 35.1111V98.0877H146.996V35.1111C146.996 33.4432 147.17 32.8384 147.496 32.2286C147.823 31.6189 148.302 31.1403 148.913 30.8142C149.523 30.4881 150.129 30.3145 151.799 30.3145Z" fill="#E1E5F0"/>
<path d="M135.767 39.0674H140.189C141.859 39.0674 142.465 39.241 143.075 39.5671C143.686 39.8932 144.165 40.3718 144.492 40.9815C144.818 41.5913 144.992 42.1961 144.992 43.864V98.0876H130.964V43.864C130.964 42.1961 131.138 41.5913 131.465 40.9815C131.791 40.3718 132.27 39.8932 132.881 39.5671C133.491 39.241 134.097 39.0674 135.767 39.0674Z" fill="#D8DEED"/>
<path d="M119.986 59.5742H124.409C126.079 59.5742 126.684 59.7479 127.295 60.074C127.905 60.4001 128.384 60.8786 128.711 61.4884C129.037 62.0981 129.211 62.7029 129.211 64.3708V98.0874H115.184V64.3708C115.184 62.7029 115.357 62.0981 115.684 61.4884C116.01 60.8786 116.49 60.4001 117.1 60.074C117.711 59.7479 118.316 59.5742 119.986 59.5742Z" fill="#D8DEED"/>
<path d="M103.954 49.3208H108.377C110.047 49.3208 110.652 49.4945 111.263 49.8206C111.873 50.1467 112.353 50.6252 112.679 51.235C113.006 51.8447 113.179 52.4495 113.179 54.1174V98.0875H99.1519V54.1174C99.1519 52.4495 99.3257 51.8447 99.6522 51.235C99.9787 50.6252 100.458 50.1467 101.068 49.8206C101.679 49.4945 102.284 49.3208 103.954 49.3208Z" fill="#D8DEED"/>
<path d="M528.442 295.877V295.947C528.442 296.845 527.655 297.593 526.756 297.593H498.471L508.437 315.853C515.555 328.874 522.635 341.857 529.716 354.878L541.442 376.355C541.854 377.104 541.516 378.076 540.73 378.525L540.58 378.6C539.793 379.049 538.782 378.787 538.407 378.076L494.538 297.593H465.316L421.447 378.076C421.073 378.787 420.061 379.012 419.274 378.6L419.124 378.525C418.338 378.076 418.001 377.104 418.413 376.355L430.139 354.878C437.257 341.857 444.337 328.874 451.418 315.853L461.383 297.593H423.882C422.946 297.593 422.196 296.845 422.196 295.947V295.76C422.196 294.862 422.983 294.113 423.882 294.113H449.357C465.953 294.113 482.587 294.113 499.221 294.113H525.134L528.292 268.595C530.465 251.234 532.6 233.835 534.773 216.436L538.332 187.7C538.445 186.69 539.306 185.942 540.243 186.054L540.43 186.092C541.329 186.204 541.966 187.139 541.854 188.075L528.479 295.685C528.47 295.75 528.457 295.814 528.442 295.877Z" fill="#D8DEED"/>
<path d="M165.707 233.727C165.333 234.386 164.625 234.831 163.814 234.831H109.98C108.781 234.831 107.844 233.858 107.844 232.661C107.844 231.463 108.818 230.49 109.98 230.49H162.344L180.598 181.437C181.01 180.315 182.246 179.753 183.37 180.165C184.494 180.577 185.056 181.811 184.644 182.934L165.875 233.372C165.829 233.497 165.772 233.616 165.707 233.727Z" fill="#474961"/>
<path d="M13.9239 295.503V295.573C13.9239 296.471 14.7106 297.219 15.6097 297.219H43.895L33.9292 315.479C26.8112 328.5 19.7307 341.483 12.6501 354.504L0.924194 375.981C0.5121 376.73 0.849266 377.702 1.63599 378.151L1.78584 378.226C2.57256 378.675 3.58408 378.413 3.95871 377.702L47.828 297.219H77.0493L120.919 377.702C121.293 378.413 122.305 378.638 123.091 378.226L123.241 378.151C124.028 377.702 124.365 376.73 123.953 375.981L112.227 354.504C105.109 341.483 98.0286 328.5 90.9481 315.479L80.9823 297.219H118.483C119.42 297.219 120.169 296.471 120.169 295.573V295.386C120.169 294.488 119.383 293.739 118.483 293.739H93.0085C76.4124 293.739 59.7788 293.739 43.1451 293.739H17.2316L14.0738 268.221C11.9009 250.86 9.76549 233.461 7.59262 216.062L4.03363 187.326C3.92124 186.316 3.05959 185.568 2.12301 185.68L1.93569 185.718C1.03658 185.83 0.399704 186.765 0.5121 187.701L13.8864 295.311C13.8961 295.376 13.9087 295.44 13.9239 295.503Z" fill="#D8DEED"/>
<path d="M240.988 297.444H211.354C210.455 297.444 209.669 296.695 209.669 295.797V295.61C209.669 294.712 210.455 293.964 211.429 293.964H238.89C255.524 293.964 272.157 293.964 288.753 293.964H314.228C315.127 293.964 315.914 294.712 315.914 295.61V295.797C315.914 296.695 315.165 297.444 314.228 297.444H278.076L288.042 315.703C295.122 328.724 302.203 341.708 309.321 354.729L321.047 376.206C321.459 376.954 321.121 377.927 320.335 378.376L320.185 378.451C319.398 378.862 318.387 378.638 318.012 377.927L274.143 297.444H244.921L201.052 377.927C200.678 378.638 199.666 378.9 198.879 378.451L198.729 378.376C197.943 377.927 197.606 376.954 198.018 376.206L209.744 354.729C216.824 341.708 223.905 328.724 231.023 315.703L240.988 297.444ZM209.781 282.781V261.026C209.781 244.433 209.781 227.879 209.781 211.325V191.554C209.781 188.455 212.297 185.942 215.401 185.942H276.54C279.644 185.942 282.16 188.455 282.16 191.554V282.845C282.16 285.945 279.644 288.458 276.54 288.458C276.538 288.458 276.536 288.458 276.534 288.458L215.395 288.393C212.293 288.39 209.781 285.878 209.781 282.781Z" fill="#D8DEED"/>
<path d="M330.262 378.713H270.733C269.796 378.713 269.047 377.964 269.047 377.029C269.047 376.094 269.796 375.345 270.733 375.345H330.262C331.198 375.345 331.948 376.094 331.948 377.029C331.948 377.964 331.198 378.713 330.262 378.713ZM221.169 378.713C220.233 378.713 219.483 378.065 219.483 377.288V376.77C219.483 375.993 220.27 375.345 221.169 375.345H259.569C260.506 375.345 261.255 375.993 261.255 376.77V377.288C261.255 378.065 260.468 378.713 259.569 378.713H221.169Z" fill="#A339FF"/>
<path d="M330.852 375.449C330.669 375.382 330.47 375.345 330.262 375.345H270.733C270.462 375.345 270.207 375.408 269.98 375.519C269.934 375.357 269.909 375.186 269.909 375.008L271.22 354.317C271.146 353.194 272.007 352.334 273.094 352.296L296.958 352.146C297.37 352.146 297.744 352.259 298.081 352.521C302.352 357.085 306.436 359.63 309.395 361.126C311.681 362.286 319.323 365.504 322.77 367.076C324.53 367.861 326.216 368.797 327.865 369.807C327.977 369.882 328.052 369.919 328.164 370.032C329.026 370.817 330.337 372.239 330.824 373.923C330.899 374.147 330.899 374.335 330.937 374.559C330.974 374.746 330.937 374.933 330.937 375.12V375.158C330.916 375.258 330.887 375.356 330.852 375.449ZM259.785 375.356C259.715 375.349 259.643 375.345 259.569 375.345H221.17C221.168 375.345 221.167 375.345 221.165 375.345L229.861 352.184L256.685 355.813L259.785 375.356Z" fill="#474961"/>
<path d="M269.321 287.61C268.026 288.549 266.896 289.366 265.932 290.061L265.451 298.005C265.226 302.207 264.964 305.897 264.664 309.148C264.439 311.705 261.555 340.676 260.506 351.307C260.281 353.718 258.67 355.764 256.46 356.422C253.125 357.445 228.1 356.276 227.163 355.837C225.965 355.289 225.328 355.034 224.691 354.413C222.443 352.294 222.593 348.933 222.555 347.69C222.331 338.301 221.656 310.061 221.656 290.297C221.656 290.232 221.656 290.167 221.656 290.102C219.186 287.985 217.003 284.8 215.293 280.845C212.694 274.871 211.108 267.1 211.064 258.666C211.064 258.562 211.064 253.485 211.064 243.437C211.064 243.398 211.064 243.398 211.064 243.359C211.108 240.587 213.751 238.4 216.879 238.4H251.463C256.265 238.556 261.023 238.712 265.825 238.868C273.299 239.066 283.932 239.356 297.725 239.738C303.119 239.887 307.991 242.993 310.397 247.817C311.544 250.114 312.24 252.003 312.487 253.483C313.97 256.099 314.79 259.157 314.715 262.412C314.715 262.485 314.715 262.522 314.715 262.595C314.115 292.595 307.11 335.331 306.623 349.784C306.585 350.331 306.435 351.536 305.649 352.813C303.214 356.718 297.519 355.842 284.22 356.171C272.906 356.463 268.335 357.339 266.013 354.127C264.739 352.375 264.776 350.368 264.814 349.455C265.865 328.68 267.459 307.683 269.321 287.61Z" fill="#474BFF"/>
<path opacity="0.176986" d="M269.309 287.748C268.01 288.689 266.882 289.505 265.925 290.195L267.362 266.477C267.399 264.833 267.587 254.896 260.132 248.576C254.699 244.009 248.106 243.717 243.723 243.535C236.979 243.242 231.735 245.142 230.723 245.507C229.449 245.982 228.812 246.238 228.176 246.567C220.908 250.366 221.47 268.633 221.545 271.957C221.618 276.094 221.656 282.498 221.657 289.948C219.26 287.831 217.14 284.705 215.471 280.845C212.872 274.871 211.286 267.1 211.242 258.666C211.242 258.562 211.242 253.485 211.242 243.437C211.242 243.398 211.242 243.398 211.242 243.359C211.286 240.587 213.93 238.4 217.057 238.4H251.641C256.443 238.556 261.201 238.712 266.003 238.868C273.477 239.066 284.111 239.356 297.904 239.738C303.297 239.887 308.169 242.993 310.575 247.817C311.838 250.346 312.555 252.38 312.727 253.919C309.872 248.522 304.245 244.879 297.782 245.004C294.635 245.077 291.526 245.15 288.379 245.223C279.95 245.442 272.944 251.975 272.045 260.515C271.094 269.318 270.173 278.434 269.309 287.748Z" fill="#444444"/>
<path d="M259.821 160.937C262.752 160.99 267.365 161.545 271.921 164.19C272.707 164.638 273.866 165.384 275.138 166.466C276.222 167.4 279.401 170.498 282.431 179.232C283.516 182.293 286.695 188.265 288.527 191.55C289.126 192.632 288.415 193.976 287.143 194.088C283.135 194.375 278.191 196.018 273.519 196.027C273.903 203.01 274.174 211.338 274.278 220.627C274.278 220.627 274.876 231.682 271.435 235.265C270.839 235.896 259.666 235.239 247.798 235.616C235.07 236.02 221.512 237.329 218.358 234.027C213.256 228.685 216.173 227.239 220.855 196.812C220.121 196.887 219.438 196.954 218.83 197.01C214.101 197.458 204.197 197.159 199.43 196.972C198.164 196.935 197.345 195.513 197.866 194.316C199.43 190.687 202.186 184.14 203.005 180.81C205.351 171.308 208.292 167.829 209.298 166.781C210.452 165.584 211.611 164.769 212.314 164.2C214.671 162.29 222.106 160.912 234.618 160.066C240.011 158.232 246.168 158.759 250.154 159.113C252.941 159.366 256.455 159.678 259.821 160.937Z" fill="#A339FF"/>
<path opacity="0.176986" d="M259.944 160.947C262.889 161.044 267.306 161.663 271.671 164.198C272.458 164.647 273.62 165.396 274.893 166.481C275.98 167.416 279.164 170.522 282.199 179.277C283.285 182.345 286.694 188.251 288.53 191.543C289.129 192.628 288.417 193.975 287.144 194.088C285.973 194.172 284.655 194.416 283.402 194.622C282.905 194.704 281.535 194.864 280.924 194.992C277.971 195.614 276.251 196.027 273.499 196.027C273.485 196.027 273.47 196.027 273.456 196.027C272.863 185.26 272.001 177.689 271.071 174.719C270.434 172.698 269.51 170.379 269.51 170.379C269.061 169.069 268.336 167.722 266.875 165.888C264.905 163.446 262.471 161.924 259.944 160.947ZM251.126 164.937C250.452 168.903 249.215 170.074 249.215 170.074C246.368 168.428 236.216 163.291 237.152 160.484C237.227 160.297 237.377 159.923 238.351 159.325C242.022 157.08 246.518 158.165 248.091 158.614C248.091 158.614 255.322 157.79 256.708 162.019C258.094 166.247 256.446 169.24 256.446 169.24C255.247 168.517 253.474 167.082 251.126 164.937Z" fill="#444444"/>
<path d="M274.231 226.185L273.499 196.027L283.425 194.622L286.458 231.602C286.718 231.737 286.971 231.87 287.216 232.001C289.363 233.15 291.142 235.242 292.553 238.277C292.625 238.43 292.66 238.598 292.658 238.766C292.649 239.386 292.139 239.882 291.518 239.873L212.626 238.732C193.792 235.002 198.915 209.488 202.603 197.091C207.779 197.253 215.09 197.382 218.959 197.017C222.615 196.685 228.963 195.954 232.696 195.395L226.002 215.426C243.978 216.317 261.631 221.318 274.231 226.185ZM253.22 156.178L253.051 163.08C245.884 165.72 240.8 161.658 240.8 161.658C240.8 161.658 241.069 156.514 241.607 146.226C241.52 146.04 241.436 145.844 241.354 145.635C240.679 143.951 238.252 138.423 238.777 136.515C238.873 136.112 236.871 130.115 239.803 127.09C242.587 124.217 250.305 124.298 250.615 124.317C251.927 124.354 253.238 124.317 254.661 124.017C254.811 124.017 254.961 123.98 255.111 123.98C256.385 123.868 263.54 123.531 267.212 128.844C267.549 129.293 267.848 129.779 268.111 130.378C268.673 131.762 268.935 133.259 268.823 134.756L268.298 141.416C268.223 142.089 268.111 142.763 267.961 143.399C266.874 148.114 265.114 151.967 263.24 154.4C261.854 156.233 260.356 157.281 259.045 157.318C258.67 157.355 256.647 157.318 254.287 156.607C254.133 156.556 254.172 156.592 253.22 156.178Z" fill="#F2A98A"/>
<path d="M233.636 195.333C233.512 195.617 233.181 195.747 232.896 195.624C232.612 195.5 232.481 195.169 232.605 194.885C233.33 193.219 233.622 192.288 234.184 189.857C234.254 189.555 234.555 189.366 234.858 189.436C235.16 189.506 235.349 189.807 235.279 190.109C234.703 192.603 234.391 193.598 233.636 195.333ZM226.399 214.643C226.708 214.614 226.982 214.84 227.012 215.149C227.041 215.457 226.814 215.731 226.505 215.76C226.432 215.767 226.289 215.783 226.086 215.81C225.746 215.856 225.365 215.916 224.955 215.992C223.783 216.21 222.613 216.514 221.526 216.917C220.884 217.154 220.29 217.42 219.755 217.714C219.483 217.863 219.141 217.764 218.992 217.493C218.842 217.221 218.941 216.88 219.213 216.73C219.8 216.408 220.444 216.12 221.135 215.864C222.289 215.437 223.519 215.118 224.749 214.889C225.179 214.809 225.578 214.746 225.937 214.698C226.064 214.681 226.176 214.667 226.274 214.656C226.334 214.649 226.376 214.645 226.399 214.643Z" fill="#482D1F"/>
<path opacity="0.2" d="M286.393 231.64C283.301 230.026 279.128 228.128 274.163 226.206L273.431 196.027L283.357 194.623L286.393 231.64Z" fill="#8C2A00"/>
<path d="M253.23 156.189L253.125 160.012L247.953 153.813C248.027 153.849 248.102 153.886 248.18 153.924C248.93 154.298 249.866 154.71 251.065 155.233C252.115 155.701 252.789 155.998 253.23 156.189Z" fill="#482D1F"/>
<path d="M249.076 138.394L249.042 137.674C249.042 137.674 248.892 136.327 247.956 134.98C247.881 134.906 247.244 134.082 246.27 133.671C244.509 132.997 242.187 133.783 240.913 135.392C239.564 137.038 239.564 139.246 240.276 140.93C240.988 142.613 242.374 143.399 242.861 143.624L245.034 144.297L245.043 144.293C243.144 147.074 241.491 149.498 241.491 149.498C241.491 149.498 238.365 146.617 236.979 144.335C236.305 143.212 233.907 140.481 233.495 136.178C233.383 134.756 232.933 129.929 236.155 126.375C237.279 125.14 238.553 124.541 239.077 124.279C242.037 122.97 244.21 123.755 249.904 123.868C250.353 123.868 251.103 123.905 252.077 123.868C253.838 123.83 255.074 123.755 255.411 123.755C258.221 123.643 264.327 124.504 267.025 128.657C267.174 128.956 267.362 129.218 267.512 129.443C266.725 129.705 265.863 130.191 264.814 130.378C261.967 130.827 259.532 130.266 258.071 129.742C255.224 132.436 252.339 135.093 249.492 137.787C249.362 137.977 249.223 138.18 249.076 138.394Z" fill="#DE6903"/>
<path d="M266.135 142.586C266.247 142.137 266.697 141.801 267.146 141.875C267.446 141.913 267.671 142.137 267.783 142.661C267.895 143.971 266.472 145.617 266.06 144.831C265.798 144.307 266.022 143.222 266.135 142.586ZM258.22 141.566C258.333 141.117 258.782 140.78 259.232 140.855C259.531 140.892 259.756 141.117 259.869 141.64C259.981 142.95 258.557 144.596 258.145 143.811C257.846 143.287 258.07 142.202 258.22 141.566Z" fill="#482D1F"/>
<path d="M263.578 142.842L263.615 146.583C263.615 146.598 263.558 146.655 263.54 146.655C263.336 146.655 263.126 146.641 262.799 146.61C262.736 146.603 262.669 146.597 262.574 146.587C262.453 146.575 262.387 146.568 262.324 146.562C262.108 146.54 261.929 146.523 261.737 146.506C261.531 146.488 261.349 146.641 261.332 146.847C261.314 147.053 261.466 147.234 261.672 147.252C261.86 147.268 262.036 147.285 262.249 147.306C262.312 147.313 262.377 147.319 262.498 147.332C262.595 147.341 262.662 147.348 262.727 147.354C263.076 147.388 263.306 147.403 263.54 147.403C263.972 147.403 264.365 147.011 264.365 146.58L264.327 142.834C264.325 142.628 264.156 142.462 263.949 142.464C263.742 142.466 263.576 142.635 263.578 142.842Z" fill="#482D1F"/>
<path d="M260.955 149.386C260.693 149.273 260.056 148.974 260.019 148.6C260.019 148.525 259.981 148.413 260.056 148.375C260.243 148.188 260.693 148.375 261.367 148.562C262.566 148.862 263.54 148.937 263.54 148.937C263.54 148.937 263.166 149.535 262.941 149.685C262.491 150.097 261.33 149.573 260.955 149.386Z" fill="#482D1F"/>
<path d="M262.618 143.251C262.02 145.533 259.943 147.216 257.471 147.216C254.533 147.216 252.151 144.837 252.151 141.903C252.151 141.252 252.268 140.629 252.483 140.053L249.513 138.775C249.217 138.683 249.051 138.369 249.143 138.073C249.235 137.777 249.55 137.611 249.847 137.703L252.981 139.052C253.925 137.571 255.584 136.589 257.471 136.589C260.409 136.589 262.791 138.968 262.791 141.903C262.791 141.982 262.789 142.061 262.786 142.14L263.954 142.261C264.462 139.855 266.6 138.049 269.16 138.049C272.098 138.049 274.479 140.427 274.479 143.362C274.479 146.296 272.098 148.675 269.16 148.675C266.227 148.675 263.848 146.305 263.84 143.378L262.618 143.251ZM253.667 140.133C253.416 140.67 253.275 141.27 253.275 141.903C253.275 144.217 255.154 146.093 257.471 146.093C259.788 146.093 261.667 144.217 261.667 141.903C261.667 139.588 259.788 137.712 257.471 137.712C255.88 137.712 254.496 138.596 253.784 139.9C253.782 139.912 253.778 139.924 253.774 139.936C253.751 140.011 253.714 140.077 253.667 140.133ZM264.976 143.043C264.968 143.148 264.964 143.254 264.964 143.362C264.964 145.676 266.842 147.552 269.16 147.552C271.477 147.552 273.356 145.676 273.356 143.362C273.356 141.047 271.477 139.171 269.16 139.171C267.026 139.171 265.265 140.761 264.999 142.82C265.002 142.857 265.002 142.895 264.998 142.933C264.994 142.971 264.987 143.008 264.976 143.043Z" fill="#482D1F"/>
<path d="M74.8729 378.376C74.8358 378.352 74.7994 378.327 74.7638 378.3L37.1508 350.313C36.4015 349.751 36.2517 348.666 36.8136 347.918C37.3756 347.17 38.462 347.02 39.2113 347.581L76.422 375.27H96.6797C97.6163 375.27 98.403 376.055 98.403 376.991C98.403 377.926 97.6163 378.712 96.6797 378.712H75.8877C75.5067 378.712 75.1566 378.588 74.8729 378.376ZM194.646 378.712H135.117C134.18 378.712 133.431 377.964 133.431 377.028C133.431 376.093 134.18 375.344 135.117 375.344H194.646C195.582 375.344 196.332 376.093 196.332 377.028C196.332 377.964 195.582 378.712 194.646 378.712Z" fill="#DE3190"/>
<path d="M195.024 375.48C194.849 375.419 194.659 375.385 194.461 375.385H134.932C134.775 375.385 134.623 375.406 134.479 375.446C134.36 375.201 134.293 374.926 134.293 374.634L133.731 353.943C133.656 352.82 134.517 351.959 135.604 351.922L161.341 351.772C161.753 351.772 162.128 351.885 162.465 352.147C166.736 356.711 170.819 359.256 173.779 360.752C176.064 361.912 183.707 365.13 187.153 366.702C188.914 367.487 190.6 368.423 192.248 369.433C192.36 369.508 192.435 369.545 192.548 369.658C193.409 370.443 194.721 371.865 195.208 373.549C195.283 373.773 195.283 373.96 195.32 374.185C195.358 374.372 195.32 374.559 195.32 374.746V374.784C195.267 375.04 195.164 375.275 195.024 375.48ZM97.2532 375.491C97.0232 375.376 96.7654 375.31 96.4952 375.31H76.2375L39.168 347.727L53.1476 327.938L75.7004 344.289C76.9366 348.48 78.2104 352.67 79.4841 356.898C80.1585 359.106 80.8328 361.276 81.5071 363.446C83.6051 364.27 85.4033 365.018 86.677 365.579C89.1122 366.627 91.1726 367.6 93.4204 369.059C93.4204 369.059 95.3685 370.256 96.4549 371.977C96.7921 372.539 97.0918 373.175 97.2791 373.848C97.354 374.148 97.354 374.447 97.3915 374.709C97.3798 374.954 97.3241 375.229 97.2532 375.491Z" fill="#474961"/>
<path d="M144.688 239.669L154.92 239.535C157.992 239.348 161.85 241.256 164.735 243.426C165.334 243.875 165.859 244.362 166.346 244.886C166.795 245.372 167.245 245.896 167.62 246.457C169.268 248.814 170.13 251.621 170.092 254.502C170.017 260.75 169.268 265.614 168.781 267.223C165.597 277.064 157.43 313.994 165.634 329.971C165.634 329.971 169.792 338.016 168.893 344.04C168.547 346.461 167.215 349.293 166.798 350.136C166.808 350.149 166.817 350.161 166.827 350.174C163.696 354.685 124.802 361.314 94.9189 351.51C90.8373 350.171 84.8788 348.629 78.0605 345.599C77.7608 345.486 77.4611 345.337 77.1988 345.15C72.5909 342.194 67.9829 339.275 63.3749 336.319L51.7988 328.911C49.5885 327.489 48.9516 324.645 50.3752 322.587L59.7785 308.893L65.3979 300.699C66.9714 298.379 68.6198 295.984 70.3056 293.552C71.1078 293.578 69.6592 293.515 65.9599 293.365C53.0632 292.841 36.2516 290.372 29.8829 280.157C26.6611 274.956 26.0991 269.493 25.8369 266.986C24.3758 252.356 31.6839 244.82 34.0788 242.441C35.6753 240.855 39.695 238.31 46.1378 234.806L88.0831 237.277L128.561 238.774C128.629 238.74 137.034 238.122 144.688 239.669Z" fill="#FFCB3D"/>
<path opacity="0.2" d="M144.558 239.67L154.92 239.535C157.992 239.348 161.85 241.256 164.735 243.426C165.334 243.875 165.859 244.361 166.346 244.885C166.795 245.372 167.245 245.896 167.62 246.457C169.268 248.814 170.13 251.62 170.092 254.501C170.017 260.75 169.268 265.614 168.781 267.223C165.597 277.064 157.43 313.994 165.634 329.971C165.634 329.971 169.793 338.015 168.893 344.039C168.542 346.498 167.173 349.381 166.78 350.174C163.403 345.664 150.041 325.079 155.336 289.887C155.486 288.989 158.772 269.59 158.772 264.24C158.772 244.916 154.086 242.166 145.959 240.011C145.497 239.888 145.029 239.775 144.558 239.67Z" fill="#8C2A00"/>
<path d="M87.5127 268.556C85.6643 271.349 83.7177 274.062 78.9912 280.52C74.2489 286.999 72.2962 289.72 70.4295 292.54C70.2013 292.885 70.2961 293.35 70.6413 293.577C70.9865 293.805 71.4513 293.711 71.6795 293.366C73.5279 290.573 75.4745 287.86 80.201 281.403C84.9433 274.924 86.896 272.202 88.7627 269.382C88.9909 269.037 88.8961 268.573 88.5509 268.345C88.2057 268.117 87.7409 268.212 87.5127 268.556Z" fill="#482D1F"/>
<path d="M68.5666 166.596C71.4892 166.399 75.241 166.939 78.4728 170.046C81.6197 173.039 80.1212 175.658 84.8415 183.665C87.2017 187.632 89.4495 190.251 88.6253 192.72C88.3256 193.643 87.4389 194.504 85.9654 195.302C82.6936 195.726 80.6831 195.975 79.9338 196.05C79.7321 196.069 79.5011 196.091 79.2634 196.115L78.6601 206.671L78.6226 207.045L77.5737 225.641L77.3489 229.271C77.3489 229.57 77.3114 229.832 77.274 230.131C77.2365 230.468 77.199 230.767 77.1616 231.104C77.0492 231.965 76.8619 232.788 76.6371 233.611C76.5247 233.948 76.4498 234.284 76.2999 234.621L38.0126 234.322L33.9116 196.116C30.8758 196.012 27.6473 195.901 24.2262 195.783C22.403 195.109 21.304 194.323 20.9294 193.425C19.9179 190.993 22.7651 188.15 25.7247 183.884C31.6813 175.353 29.8456 172.846 33.7418 169.516C38.9055 165.1 44.1718 164.442 47.7398 164.683C47.819 164.66 47.8983 164.637 47.9778 164.615C49.8509 164.091 51.874 163.866 53.9344 163.978L62.1763 164.502C64.4488 164.623 66.5987 165.381 68.5666 166.596Z" fill="#DE3190"/>
<path opacity="0.176986" d="M68.4307 166.606C71.3722 166.382 75.1906 166.891 78.4727 170.046C81.6196 173.039 80.121 175.658 84.8414 183.665C87.2016 187.631 89.4494 190.251 88.6252 192.72C88.3255 193.643 87.4388 194.504 85.9653 195.302C82.6935 195.726 80.683 195.975 79.9337 196.05C79.6846 196.073 79.3911 196.102 79.0954 196.132L79.6549 186.344C79.0181 179.273 75.2343 171.677 69.7647 167.524C69.3302 167.195 68.8853 166.888 68.4307 166.606Z" fill="#444444"/>
<path d="M77.8435 217.893L78.4559 207.036L78.4934 206.661L79.0989 196.069L85.3183 195.308L87.2538 218.698C91.382 219.035 95.5357 219.354 99.7141 219.654C104.247 219.991 108.78 220.29 113.238 220.552C113.854 220.194 118.988 219.721 124.903 220.552C126.721 220.808 129.389 221.553 132.906 222.789C139.575 224.739 144.05 226.123 146.33 226.943C149.751 228.172 146.33 230.468 141.56 230.468C140.601 230.468 126.93 230.97 122.957 231.528C123.025 231.519 123.095 231.509 123.168 231.5L125.509 232.135C126.715 232.43 127.866 232.877 128.993 233.511C129.999 234.075 131.005 234.639 132.011 235.203C132.286 235.381 132.535 235.672 132.668 236.041C133.095 237.15 132.967 239.152 132.011 239.148L73.9269 237.366C74.9016 237.294 75.8745 237.218 76.8472 237.14C67.9212 237.796 58.9758 238.202 48.8392 238.138C42.92 238.101 41.4215 237.914 39.6232 236.978C31.9058 232.975 30.4073 221.375 29.171 211.235C28.6615 207.305 28.2802 202.136 28.5285 195.986C40.4388 196.396 49.7596 196.712 56.491 196.935C56.4888 197.237 56.4856 197.527 56.4816 197.803C56.4442 201.694 56.3318 205.286 56.669 210.599C56.8188 212.807 56.8563 214.64 56.9312 215.838C63.8211 216.578 70.7933 217.263 77.8435 217.893ZM65.5126 162.458L65.0028 164.432C66.756 165.089 68.277 166.318 69.9309 167.57C69.7061 168.543 69.294 169.216 68.807 169.703C65.8474 172.659 56.3817 170.152 47.2032 164.539C47.9592 164.328 49.9985 163.498 53.6344 163.398C53.9275 163.39 54.2707 163.39 54.6638 163.398C55.5391 161.59 56.3797 159.956 57.2978 157.934C57.2839 157.926 57.2739 157.92 57.2684 157.917L58.2049 151.107C58.1675 150.695 58.2799 151.032 57.9052 150.882C56.9687 150.546 56.1445 149.909 55.5076 149.086C54.4212 147.59 54.1964 145.494 54.9457 143.623C55.8073 141.865 57.8678 140.593 59.666 140.892C60.3403 141.004 60.9398 141.304 61.5017 141.753L61.5392 141.79C61.7265 141.977 61.9887 142.052 62.2135 142.089C62.8504 142.127 63.4123 141.715 63.4872 141.079L64.5362 131.351C64.5737 130.715 64.1988 130.441 64.8357 130.478C65.7598 130.553 67.2876 130.553 69.4192 130.478C69.6065 130.478 71.0516 130.478 71.2015 130.478C72.0967 130.627 78.9595 130.266 82.4436 135.878C82.7433 136.439 83.043 136.963 83.2678 137.525C83.8297 138.909 84.017 140.443 83.8297 141.977L82.9306 148.75C82.8182 149.423 82.6684 150.097 82.481 150.77C80.0834 159.039 75.8501 164.577 72.6283 164.539C70.9799 164.465 69.3315 164.165 67.7955 163.567C67.594 163.466 67.7237 163.546 65.5126 162.458Z" fill="#DB9E75"/>
<path opacity="0.2" d="M77.6614 218.09L78.2815 207.098L78.319 206.724L78.9254 196.114L85.3187 195.309L87.111 218.898C83.946 218.64 80.796 218.371 77.6614 218.09ZM123.155 231.542L125.281 232.115C126.487 232.41 127.678 232.8 128.806 233.434C129.812 233.998 131.005 234.639 132.011 235.203C132.286 235.381 132.535 235.672 132.668 236.042C133.095 237.15 132.967 239.153 132.011 239.148L73.7832 237.426C81.5978 236.848 89.3021 236.061 97.675 235.266C100.26 235.041 121.526 232.085 122.725 231.599C122.857 231.58 123.001 231.561 123.155 231.542Z" fill="#8C2A00"/>
<path d="M52.193 216.77C51.8842 216.801 51.6085 216.577 51.5771 216.269C51.5458 215.96 51.7707 215.685 52.0794 215.653L56.8747 215.167C57.1835 215.136 57.4592 215.36 57.4906 215.669C57.5219 215.977 57.297 216.252 56.9883 216.284L52.193 216.77ZM56.3494 197.159C56.0435 197.106 55.8381 196.816 55.8906 196.51C55.9432 196.205 56.2337 196 56.5396 196.052C56.5519 196.054 56.5864 196.059 56.64 196.064C57.1245 196.111 57.6857 196.063 58.2026 195.85C59.1437 195.463 59.7328 194.613 59.817 193.058C59.9255 191.053 59.8432 189.459 59.6417 188.247C59.5941 187.961 59.5435 187.721 59.4937 187.527C59.4654 187.418 59.4451 187.351 59.4363 187.326C59.3327 187.034 59.4859 186.713 59.7784 186.61C60.0709 186.507 60.3921 186.659 60.4957 186.952C60.5643 187.145 60.6588 187.512 60.7504 188.063C60.9655 189.357 61.0521 191.034 60.9392 193.119C60.832 195.1 59.9772 196.334 58.6306 196.888C57.9181 197.181 57.183 197.245 56.5316 197.182C56.4497 197.174 56.388 197.165 56.3494 197.159Z" fill="#482D1F"/>
<path d="M65.6605 162.295L61.8018 160.611L64.5366 166.186L65.6605 162.295Z" fill="#482D1F"/>
<path d="M64.2218 147.86L63.1879 144.185C62.8508 143.287 62.2888 142.501 61.577 141.865C61.0151 141.416 60.4157 141.117 59.7413 141.004C57.9431 140.705 55.8826 141.977 55.021 143.736C54.1968 145.494 54.3841 147.59 55.5829 149.086C56.3184 150.078 57.3427 150.781 58.5496 151.09C58.028 153.99 57.2687 157.992 57.2687 157.992C57.2687 157.992 56.3482 157.565 54.5072 156.711C50.0486 154.222 47.6261 149.578 47.2395 142.779C39.9825 145.571 33.0468 143.622 30.3328 139.47C28.2723 136.29 28.7256 132.052 28.8717 131.463C30.3328 125.575 35.3528 124.691 35.3528 124.691C35.3528 124.691 42.5832 120.986 50.3006 132.286C50.3297 132.329 50.3589 132.372 50.3881 132.416C51.2287 131.549 52.2667 130.916 53.3726 130.453C56.482 129.181 58.6923 130.079 64.6115 130.341C65.8103 130.416 67.6086 130.453 69.8564 130.378C70.0437 130.378 70.1935 130.378 70.3434 130.378C71.692 130.341 78.9845 130.303 82.4685 135.915C82.4311 136.028 82.3786 136.132 82.2941 136.29C82.2941 136.29 75.0598 148.767 64.2218 147.86ZM78.5478 146.729C77.7985 146.804 76.5623 146.841 75.5882 146.43C73.9024 145.794 75.7006 145.008 77.2741 145.158C78.0233 145.195 78.5478 145.607 78.885 145.943C79.1097 146.243 78.9224 146.692 78.5478 146.729ZM84.8791 147.515C84.0923 147.665 82.931 147.814 81.882 147.478C80.1213 146.991 81.8071 146.018 83.418 146.056C84.2422 146.093 84.7667 146.392 85.1413 146.729C85.4035 146.991 85.2537 147.44 84.8791 147.515Z" fill="#482D1F"/>
<path d="M81.5069 151.406C81.2447 150.92 81.5069 149.91 81.6942 149.274C81.8066 148.825 82.2937 148.563 82.7057 148.637C82.968 148.712 83.2677 148.899 83.2677 149.423C83.3426 150.695 81.8441 152.229 81.5069 151.406ZM75.363 150.546C75.0633 150.059 75.363 149.049 75.5503 148.413C75.6627 147.964 76.1497 147.702 76.5618 147.777C76.824 147.852 77.1237 148.039 77.1237 148.563C77.1987 149.835 75.7376 151.369 75.363 150.546Z" fill="#482D1F"/>
<path d="M81.5288 148.52C81.588 148.322 81.4752 148.113 81.2769 148.054C81.0786 147.995 80.87 148.108 80.8108 148.306L80.174 150.439L80.1631 150.486L79.5262 154.453C79.5238 154.467 79.4915 154.488 79.4246 154.478C79.0355 154.385 78.5839 154.274 78.1026 154.149C77.9023 154.098 77.698 154.218 77.6463 154.418C77.5945 154.618 77.715 154.822 77.9154 154.874C78.4017 154.999 78.8585 155.112 79.2858 155.213C79.7714 155.284 80.1927 155.01 80.2656 154.573L80.899 150.629L81.5288 148.52Z" fill="#482D1F"/>
<path d="M65.6604 162.482L62.7383 161.022L64.012 167.907L65.6604 162.482Z" fill="#482D1F"/>
<path d="M76.8242 157.804C76.5619 157.729 75.9251 157.505 75.8501 157.056C75.8501 156.981 75.8127 156.869 75.8501 156.794C75.9625 156.607 77.1614 156.794 77.1614 156.794C78.6599 157.056 79.072 157.019 79.1469 157.243C79.1844 157.355 79.1469 157.505 78.8097 157.804C78.3976 158.366 77.1988 157.954 76.8242 157.804Z" fill="#482D1F"/>
<path d="M409.216 375.719H460.896C461.833 375.719 462.582 376.467 462.582 377.403C462.582 378.338 461.833 379.086 460.896 379.086H401.367H357.535C356.599 379.086 355.85 378.338 355.85 377.403C355.85 376.467 356.599 375.719 357.535 375.719H409.216Z" fill="#FF5645"/>
<path d="M357.91 375.719H357.536C357.427 375.719 357.321 375.729 357.219 375.748C357.113 375.569 357.035 375.371 356.99 375.158V375.12C356.99 374.933 356.953 374.746 356.99 374.559C357.028 374.335 357.028 374.147 357.103 373.923C357.354 373.055 358 372.038 359.043 370.872C359.635 370.21 360.33 369.647 361.101 369.207C362.822 368.225 364.174 367.515 365.157 367.076C368.604 365.504 376.246 362.286 378.532 361.126C381.491 359.63 385.575 357.085 389.845 352.521C390.183 352.259 390.557 352.146 390.969 352.146L412.456 352.296C413.543 352.296 414.404 353.194 414.33 354.317L416.136 364.451C418.038 363.63 419.749 362.838 421.86 361.613C423.621 360.603 426.093 358.956 428.865 356.487C430.401 355.14 431.975 353.793 433.511 352.446L456.7 352.146L461.471 375.755C461.553 375.772 461.633 375.795 461.71 375.823L461.733 375.938C461.495 375.803 461.219 375.724 460.925 375.719C460.915 375.719 460.906 375.719 460.896 375.719H409.216H400.622H357.91Z" fill="#474961"/>
<path opacity="0.176986" d="M409.328 375.719H409.216H357.536C357.427 375.719 357.321 375.729 357.219 375.748C357.113 375.569 357.035 375.371 356.99 375.158V375.12C356.99 374.933 356.953 374.746 356.99 374.559C357.028 374.335 357.028 374.147 357.103 373.923C357.354 373.055 358 372.038 359.043 370.872C359.635 370.21 360.33 369.647 361.101 369.207C362.822 368.225 364.174 367.515 365.157 367.076C368.604 365.504 376.246 362.286 378.532 361.126C381.491 359.63 385.575 357.085 389.845 352.521C390.183 352.259 390.557 352.146 390.969 352.146L412.456 352.296C413.543 352.296 414.404 353.194 414.33 354.317L416.152 364.541C414.159 365.398 411.937 366.306 408.823 367.787C407.024 368.647 405.301 369.62 403.615 370.705C402.791 371.453 401.367 372.988 400.918 374.784C400.843 375.083 400.843 375.382 400.805 375.644C400.805 375.67 400.819 375.694 400.847 375.719H409.441H409.328ZM461.733 375.938C461.495 375.803 461.219 375.724 460.925 375.719L461.121 375.719C461.329 375.719 461.527 375.756 461.71 375.823L461.733 375.938Z" fill="#444444"/>
<path d="M407.778 239.959C408.423 239.856 409.033 239.823 409.609 239.859L478.129 239.597L509.523 239.522C510.797 239.597 516.171 241.239 517.407 242.645C518.605 243.281 526.269 251.196 524.996 265.901C524.771 268.371 524.284 273.871 521.137 279.109C517.84 284.572 512.296 288.576 505.515 290.858C499.521 292.879 492.515 293.59 485.247 292.804C469.887 290.035 454.565 287.304 439.205 284.535V285.096L439.28 285.358C439.28 285.358 441.153 288.875 442.764 292.504C444.375 296.096 446.623 313.084 446.623 313.196C450.294 319.033 454.003 326.928 456.85 336.881C457.974 340.884 458.574 344.027 458.798 345.225C459.251 347.792 459.61 350.893 459.876 354.527C459.88 354.582 459.882 354.636 459.882 354.691C459.882 355.931 458.876 356.936 457.635 356.936C457.271 356.936 456.984 356.936 456.775 356.936L423.471 356.899L413.228 356.848C412.886 356.938 412.527 356.986 412.158 356.986L384.81 356.874H382.6C380.427 356.874 378.591 355.153 378.479 352.983C378.216 348.605 377.879 342.843 377.467 336.183C376.343 319.383 375.744 314.032 375.069 301.086C374.957 298.916 374.845 296.97 374.77 295.137C374.47 286.418 373.683 278.262 372.147 267.598C371.286 261.686 370.874 258.019 370.836 254.914C370.799 252.033 371.66 249.189 373.309 246.832C374.133 245.672 375.069 244.661 376.193 243.801C379.078 241.593 381.144 240.091 388.381 239.984C394.108 239.9 400.733 239.926 407.778 239.959Z" fill="#3ABF7C"/>
<path opacity="0.176986" d="M407.979 239.929C407.886 239.941 407.793 239.956 407.699 239.971C405.076 240.42 402.117 241.954 399.831 243.713C398.708 244.574 397.733 245.584 396.947 246.744C395.298 249.064 394.437 251.832 394.437 254.676V254.863C394.474 257.969 394.886 261.636 395.71 267.547C397.246 278.211 398.033 286.331 398.333 295.086C398.408 296.882 398.52 298.865 398.633 301.035C399.269 313.944 399.906 319.295 401.03 336.132C401.48 342.792 401.817 348.517 402.042 352.932C402.154 355.102 403.99 356.824 406.163 356.824H408.373L413.106 356.847C412.801 356.918 412.484 356.955 412.158 356.955L384.81 356.843H382.6C380.427 356.843 378.591 355.122 378.479 352.952C378.216 348.574 377.879 342.812 377.467 336.152C376.343 319.352 375.744 314.001 375.069 301.055C374.957 298.885 374.845 296.939 374.77 295.106C374.47 286.388 373.683 278.231 372.147 267.567C371.286 261.655 370.874 257.988 370.836 254.883C370.799 252.002 371.66 249.158 373.309 246.801C374.133 245.641 375.069 244.631 376.193 243.77C379.078 241.562 381.144 240.06 388.381 239.953C394.163 239.868 400.859 239.895 407.979 239.929L407.979 239.929Z" fill="#444444"/>
<path d="M439.019 283.702C438.554 283.245 438.07 282.768 437.564 282.268C437.427 282.132 437.427 282.132 437.29 281.997C435.862 280.584 434.694 279.42 432.429 277.158C432.137 276.866 431.662 276.866 431.37 277.158C431.077 277.45 431.077 277.924 431.37 278.216C433.636 280.48 434.805 281.645 436.235 283.06C436.372 283.195 436.372 283.195 436.509 283.331C437.016 283.833 437.502 284.311 437.968 284.769C438.263 285.059 438.737 285.055 439.027 284.76C439.317 284.465 439.314 283.992 439.019 283.702Z" fill="#482D1F"/>
<path d="M488.199 162.317C490.405 161.569 492.809 161.217 495.306 161.349C505.233 161.836 512.876 169.73 512.389 178.972C512.15 183.491 509.997 187.495 506.697 190.339L514.993 220.627C516.267 225.417 515.817 230.281 513.944 234.471C513.682 235.07 513.382 235.669 513.082 236.23C512.745 236.829 512.37 237.427 511.996 237.989C511.584 238.587 511.134 239.186 510.647 239.747H469.85C469.513 239.186 469.176 238.625 468.876 237.989C468.576 237.427 468.314 236.829 468.089 236.23C467.864 235.669 467.677 235.07 467.49 234.471C467.452 234.359 467.415 234.247 467.377 234.135L456.771 197.211L449.032 198.062C448.357 198.137 447.72 197.688 447.645 197.052L447.308 194.433C447.294 194.315 447.3 194.201 447.322 194.091C446.05 193.319 444.884 192.393 443.899 191.327C442.476 189.793 441.389 187.997 440.752 185.939C438.205 177.782 443.862 169.064 453.377 166.52C457.207 165.496 461.086 165.617 464.519 166.66C465.975 165.65 467.57 164.872 469.288 164.39L477.492 161.958C481.27 161.398 484.903 161.528 488.199 162.317Z" fill="#FF5645"/>
<path opacity="0.176986" d="M456.715 197.217L449.032 198.062C448.357 198.137 447.72 197.688 447.645 197.052L447.308 194.432C447.294 194.315 447.3 194.201 447.322 194.091C446.05 193.319 444.884 192.393 443.899 191.327C442.476 189.793 441.389 187.997 440.752 185.939C438.205 177.782 443.862 169.064 453.377 166.52C457.228 165.49 461.129 165.618 464.576 166.677C456.825 171.983 452.98 183.877 455.542 193.132L456.715 197.217Z" fill="#444444"/>
<path d="M450.219 168.169C450.219 168.169 449.507 171.013 453.291 170.227C457.075 169.441 458.161 169.067 458.161 169.067L457.187 166.485L450.219 168.169Z" fill="#482D1F"/>
<path d="M463.264 160.74C463.141 160.773 463.018 160.804 462.897 160.834L463.281 160.778L463.264 160.74ZM473.291 154.704L474.233 154.325L478.766 162.145L471.293 164.483L478.616 199.225C478.616 199.225 479.239 196.717 480.036 192.196C480.074 192.208 480.112 192.219 480.152 192.228L500.869 196.83C500.956 196.849 501.044 196.859 501.13 196.861C500.405 199.75 499.632 203.225 498.809 206.82C496.673 216.1 496.336 220.402 492.927 226.539C489.031 233.536 485.434 233.723 484.011 234.247C480.826 235.481 477.642 235.294 475.657 234.808C473.274 234.232 468.91 233.304 465.207 226.579L467.377 234.134C467.415 234.247 467.452 234.359 467.49 234.471C467.677 235.07 467.864 235.668 468.089 236.23C468.314 236.828 468.576 237.427 468.876 237.988C469.175 238.624 469.513 239.186 469.85 239.747H474.649L412.471 239.825C412.297 239.825 412.136 239.766 412.009 239.667C401.697 233.443 396.589 228.692 396.686 225.414C399.806 224.94 404.257 224.289 410.042 223.462C413.636 222.948 417.286 222.958 420.877 223.493L432.169 225.174C440.617 222.47 451.891 218.918 454.706 218.306L449.872 197.969L456.771 197.211L460.015 208.504C458.12 195.132 458.61 181.198 456.897 167.783L452.954 167.869C450.631 168.805 445.761 170.376 445.236 167.046C445.236 167.046 451.68 164.39 456.213 162.444L456.55 162.145C456.85 161.883 457.112 161.733 457.487 161.621C457.562 161.583 457.637 161.583 457.712 161.583L459.51 161.322L459.762 161.285C459.164 161.314 458.748 161.299 458.598 161.284C455.469 161.06 451.818 155.335 450.178 147.066C450.029 146.392 449.992 145.719 449.918 145.045L449.62 138.348C449.545 136.851 449.843 135.354 450.551 134.045C450.849 133.484 451.147 132.96 451.482 132.548C455.32 127.385 462.398 127.946 463.665 128.096C463.814 128.096 463.963 128.133 464.112 128.133C465.528 128.47 466.794 128.582 468.135 128.545C468.732 128.545 469.216 129.031 469.253 129.63L469.439 139.208C469.477 140.106 474.022 138.385 474.022 138.348C476.203 136.701 478.94 145.569 477.822 146.879C477.002 147.777 474.692 149.049 474.022 149.273C473.612 149.423 473.314 149.76 473.239 150.134C473.495 152.029 473.512 153.552 473.291 154.704Z" fill="#DB9E75"/>
<path opacity="0.2" d="M449.871 198.001L456.771 197.242L467.377 234.166C467.414 234.278 467.452 234.39 467.489 234.502C467.676 235.101 467.864 235.7 468.088 236.261C468.313 236.859 468.575 237.458 468.875 238.019C469.175 238.655 469.512 239.217 469.849 239.778H474.648L412.47 239.856C412.296 239.857 412.136 239.797 412.008 239.698C401.696 233.474 396.589 228.724 396.686 225.446C399.805 224.971 404.257 224.321 410.041 223.493C413.636 222.979 417.286 222.989 420.877 223.524L432.168 225.205C440.617 222.501 451.89 218.949 454.705 218.337L449.871 198.001Z" fill="#8C2A00"/>
<path d="M394.991 230.527C399.012 225.585 407.287 221.582 421.14 230.801C423.252 232.159 422.537 236.613 420.213 236.663L396.263 237.066C394.464 237.126 393.651 232.19 394.991 230.527Z" fill="#474961"/>
<path d="M484.801 137.088C489.606 140.239 494.193 144.869 493.377 147.926C492.74 150.396 490.342 151.705 487.907 153.052C485.941 154.13 482.309 155.797 477.08 156.146C477.08 156.15 477.08 156.154 477.08 156.158C475.844 156.345 474.645 156.532 473.409 156.719C472.772 156.794 472.173 156.345 472.135 155.709C472.323 154.362 472.51 153.015 472.697 151.668C472.865 150.996 473.043 150.147 473.151 149.237C473.749 149.093 475.083 148.707 476.106 147.515C477.23 146.205 477.83 144.222 477.08 142.314C476.406 140.48 474.533 139.059 472.735 139.208C471.723 139.283 470.936 139.844 470.824 139.919C470.011 140.534 469.335 141.375 468.967 141.879C467.203 141.196 464.467 139.737 462.208 136.851C461.683 136.202 461.071 135.242 460.372 133.97C456.64 134.815 453.506 134.603 450.969 133.334C451.523 132.28 452.386 131.327 453.56 130.475C455.32 129.196 455.514 129.042 457.735 128.419C459.126 128.029 461.755 127.905 463.637 128.096H463.706C465.841 128.32 467.602 128.395 468.764 128.395C474.458 128.507 476.668 127.759 479.553 129.181C480.077 129.443 481.314 130.116 482.4 131.388C483.94 133.185 484.57 135.267 484.801 137.088ZM450.865 149.954C452.283 155.008 453.791 156.869 453.599 156.869C453.407 156.869 452.908 157.131 449.049 156.046C447.139 155.522 445.34 154.998 444.516 153.464C443.355 151.294 446.816 146.81 449.888 143.817C449.888 146.033 450.255 147.704 450.865 149.954ZM448.608 142.538C448.234 142.464 448.084 142.015 448.346 141.753C448.683 141.453 449.245 141.079 449.995 141.042C451.531 140.967 453.216 141.865 451.568 142.389C450.519 142.763 449.32 142.651 448.608 142.538ZM455.876 142.538C455.502 142.464 455.352 142.015 455.651 141.753C455.989 141.453 456.551 141.079 457.337 141.042C458.873 140.967 460.559 141.902 458.911 142.389C457.787 142.763 456.626 142.651 455.876 142.538Z" fill="#482D1F"/>
<path d="M451.418 145.419C451.493 146.056 451.568 147.103 451.231 147.552C450.744 148.226 449.582 146.505 449.845 145.307C449.957 144.783 450.219 144.634 450.519 144.634C450.969 144.634 451.343 144.97 451.418 145.419ZM458.087 145.195C458.199 145.831 458.274 146.879 457.899 147.328C457.412 148.001 456.251 146.28 456.513 145.083C456.626 144.559 456.888 144.409 457.187 144.409C457.637 144.409 458.012 144.746 458.087 145.195Z" fill="#482D1F"/>
<path d="M478.19 199.421C478.102 199.124 478.272 198.812 478.569 198.724C478.867 198.636 479.18 198.806 479.268 199.103L482.977 211.638C483.064 211.935 482.894 212.247 482.597 212.335C482.299 212.423 481.987 212.253 481.899 211.956L478.19 199.421ZM503.561 192.971C503.571 193.037 503.569 193.106 503.553 193.175L502.917 195.979C502.7 196.954 501.726 197.558 500.748 197.34C500.445 197.273 500.254 196.973 500.321 196.671C500.388 196.368 500.688 196.177 500.991 196.245C501.369 196.329 501.738 196.1 501.82 195.733L502.367 193.322C502.267 193.27 502.182 193.186 502.128 193.077C501.989 192.8 502.101 192.463 502.379 192.324C503.979 191.525 505.467 190.473 506.734 189.243C506.957 189.027 507.313 189.033 507.529 189.255C507.745 189.477 507.74 189.833 507.517 190.049C506.348 191.183 505.005 192.174 503.561 192.971ZM480.413 187.973C480.41 187.998 480.406 188.024 480.401 188.049L479.764 190.853C479.68 191.23 479.909 191.599 480.274 191.68C480.577 191.747 480.768 192.047 480.701 192.349C480.634 192.652 480.333 192.843 480.03 192.776C479.054 192.559 478.45 191.587 478.668 190.607L479.305 187.801C479.329 187.692 479.384 187.598 479.458 187.525C479.017 186.992 478.684 186.524 478.406 186.048C478.157 185.622 477.949 185.185 477.728 184.638C477.577 184.266 477.484 184.016 477.152 183.103C477.046 182.811 477.196 182.489 477.488 182.384C477.779 182.278 478.102 182.428 478.208 182.719C478.535 183.617 478.626 183.863 478.77 184.218C478.972 184.718 479.158 185.107 479.377 185.483C479.671 185.985 480.041 186.488 480.578 187.109C480.781 187.344 480.755 187.698 480.52 187.901C480.486 187.929 480.45 187.954 480.413 187.973ZM465.874 160.092C464.488 160.728 463.546 161.854 461.383 162.07C459.66 162.481 458.199 161.995 457.45 161.621C457.525 161.583 457.6 161.583 457.674 161.583L459.473 161.322C460.334 161.322 461.719 161.172 463.33 160.723L465.874 160.092Z" fill="#482D1F"/>
<path d="M456.176 152.753C456.438 152.679 457.075 152.454 457.187 152.042C457.187 151.968 457.225 151.855 457.187 151.781C457.037 151.556 456.55 151.668 455.876 151.743C454.677 151.855 453.703 151.743 453.703 151.743C453.703 151.743 454.003 152.491 454.19 152.679C454.602 153.277 455.801 152.903 456.176 152.753Z" fill="#482D1F"/>
<path d="M453.366 145.732L453.368 145.677L453.365 145.704L453.366 145.732ZM452.919 149.681L452.917 149.723C452.917 150.131 453.196 150.51 453.604 150.578C453.679 150.585 453.721 150.588 453.763 150.591C454.159 150.617 454.443 150.621 455.464 150.621C455.671 150.621 455.839 150.453 455.839 150.246C455.839 150.04 455.671 149.872 455.464 149.872C454.461 149.872 454.185 149.868 453.811 149.844C453.772 149.842 453.734 149.839 453.695 149.836C453.703 149.836 453.672 149.793 453.666 149.737L454.113 145.761L454.115 145.706L454.04 143.499C454.033 143.292 453.86 143.13 453.653 143.137C453.446 143.144 453.284 143.318 453.291 143.524L453.365 145.704L452.919 149.681Z" fill="#482D1F"/>
<path d="M514.693 234.659H36.2889C34.8406 234.659 33.6665 235.831 33.6665 237.278C33.6665 238.724 34.8406 239.897 36.2889 239.897H514.693C516.141 239.897 517.315 238.724 517.315 237.278C517.315 235.831 516.141 234.659 514.693 234.659Z" fill="#D8DEED"/>
<path d="M333.849 229.047L337.452 214.528H310.407C307.598 214.528 305.274 212.396 305.274 209.814V168.693C305.237 166.074 307.523 163.941 310.37 163.941H392.676C395.486 163.941 397.809 166.074 397.809 168.655V209.814C397.809 212.396 395.486 214.528 392.676 214.528H359.718L358.231 229.047H367.989C369.487 229.047 370.648 230.244 370.648 231.703C370.648 233.2 369.45 234.36 367.989 234.36H326.217C324.719 234.36 323.557 233.163 323.557 231.703C323.482 230.244 324.719 229.047 326.217 229.047H333.849Z" fill="#474961"/>
<path fill-rule="evenodd" clip-rule="evenodd" d="M360.834 203.946L360.945 229.084H358.259L360.834 203.946Z" fill="white"/>
<path d="M323.631 7.16504H200.377C196.239 7.16504 192.885 10.5154 192.885 14.6484V105.571C192.885 109.704 196.239 113.054 200.377 113.054H323.631C327.769 113.054 331.124 109.704 331.124 105.571V14.6484C331.124 10.5154 327.769 7.16504 323.631 7.16504Z" fill="#F2F6FB"/>
<path d="M275.033 86.9656C288.42 79.2478 293.021 62.1808 285.311 48.8452C277.601 35.5097 260.499 30.9555 247.113 38.6733C233.726 46.391 229.125 63.4581 236.835 76.7936C244.545 90.1292 261.647 94.6833 275.033 86.9656ZM270.559 79.2267C261.452 84.4774 249.826 81.3815 244.589 72.3233C239.352 63.265 242.48 51.6628 251.587 46.4121C260.694 41.1614 272.32 44.2573 277.557 53.3156C282.795 62.3738 279.666 73.976 270.559 79.2267Z" fill="#E1E5F0"/>
<path d="M244.876 34.8033C229.35 43.7546 224.012 63.5541 232.958 79.0283C241.905 94.5025 261.745 99.7857 277.271 90.8345C292.797 81.8832 298.135 62.0837 289.188 46.6095L281.435 51.0799C287.908 62.2768 284.043 76.6114 272.797 83.0956C261.55 89.5798 247.186 85.7548 240.712 74.5579C234.238 63.361 238.103 49.0264 249.35 42.5422L244.876 34.8033Z" fill="#474BFF"/>
<path d="M244.64 33.5488C228.692 42.744 223.208 63.0838 232.399 78.981C241.59 94.8781 261.971 100.306 277.92 91.1104L272.558 81.8368C261.737 88.0758 247.918 84.3957 241.69 73.6241C235.463 62.8525 239.181 49.0613 250.002 42.8224L244.64 33.5488Z" fill="#D8DEED"/>
<path d="M192.885 13.1536C192.885 9.84622 195.569 7.16504 198.88 7.16504H325.128C328.439 7.16504 331.124 9.8455 331.124 13.1536V19.1422H192.885V13.1536Z" fill="#E1E5F0"/>
<path d="M200.928 15.8756C202.359 15.8756 203.518 14.7178 203.518 13.2896C203.518 11.8614 202.359 10.7036 200.928 10.7036C199.498 10.7036 198.338 11.8614 198.338 13.2896C198.338 14.7178 199.498 15.8756 200.928 15.8756Z" fill="#FF5645"/>
<path d="M209.381 15.8756C210.811 15.8756 211.971 14.7178 211.971 13.2896C211.971 11.8614 210.811 10.7036 209.381 10.7036C207.95 10.7036 206.791 11.8614 206.791 13.2896C206.791 14.7178 207.95 15.8756 209.381 15.8756Z" fill="#FFCB3D"/>
<path d="M218.106 15.8756C219.536 15.8756 220.696 14.7178 220.696 13.2896C220.696 11.8614 219.536 10.7036 218.106 10.7036C216.675 10.7036 215.516 11.8614 215.516 13.2896C215.516 14.7178 216.675 15.8756 218.106 15.8756Z" fill="#3ABF7C"/>
</svg>
